<?xml version="1.0" encoding="UTF-8" standalone="no"?>
<!-- tree_logo.svg -->

<svg
   xmlns:dc="http://purl.org/dc/elements/1.1/"
   xmlns:cc="http://creativecommons.org/ns#"
   xmlns:rdf="http://www.w3.org/1999/02/22-rdf-syntax-ns#"
   xmlns:svg="http://www.w3.org/2000/svg"
   xmlns="http://www.w3.org/2000/svg"
   xmlns:sodipodi="http://sodipodi.sourceforge.net/DTD/sodipodi-0.dtd"
   xmlns:inkscape="http://www.inkscape.org/namespaces/inkscape"
   width="100"
   height="140"
   id="svg2"
   version="1.1"
   inkscape:version="0.91 r"
   sodipodi:docname="tree_logo.svg"
   inkscape:export-filename="/home/charles/Desktop/pear/tree_logo.png"
   inkscape:export-xdpi="32.867512"
   inkscape:export-ydpi="32.867512">
  <metadata
     id="metadata24">
    <rdf:RDF>
      <cc:Work
         rdf:about="">
        <dc:format>image/svg+xml</dc:format>
        <dc:type
           rdf:resource="http://purl.org/dc/dcmitype/StillImage" />
      </cc:Work>
    </rdf:RDF>
  </metadata>
  <defs
     id="defs22" />
  <sodipodi:namedview
     pagecolor="#ffffff"
     bordercolor="#666666"
     borderopacity="1"
     objecttolerance="10"
     gridtolerance="10"
     guidetolerance="10"
     inkscape:pageopacity="0"
     inkscape:pageshadow="2"
     inkscape:window-width="1544"
     inkscape:window-height="1179"
     id="namedview20"
     showgrid="false"
     inkscape:zoom="1.6857143"
     inkscape:cx="51.186441"
     inkscape:cy="70"
     inkscape:window-x="0"
     inkscape:window-y="0"
     inkscape:window-maximized="0"
     inkscape:current-layer="svg2" />
  <!-- first circle -->
  <circle
     cx="50"
     cy="25"
     r="5"
     fill="black"
     id="circle4" />
  <!-- second circle -->
  <circle
     cx="25"
     cy="75"
     r="5"
     fill="black"
     id="circle6" />
  <line
     x1="50"
     y1="25"
     x2="25"
     y2="75"
     stroke="black"
     stroke-width="2"
     id="line8" />
  <!-- third circle -->
  <circle
     cx="75"
     cy="75"
     r="5"
     fill="black"
     id="circle10" />
  <line
     x1="50"
     y1="25"
     x2="75"
     y2="75"
     stroke="black"
     stroke-width="2"
     id="line12" />
  <!-- fourth circle -->
  <circle
     cx="25"
     cy="115"
     r="5"
     fill="black"
     id="circle14" />
  <line
     x1="25"
     y1="75"
     x2="25"
     y2="115"
     stroke="black"
     stroke-width="2"
     id="line16" />
  <!-- Pear -->
  <path
     fill="#070706"
     mask="url(#mask)"
     d=" M 24.80 17.82 C 27.31 19.82 25.95 23.57 26.45 26.39 C 30.79 27.27 34.81 30.36 35.64 34.88 C 36.47 39.90 37.91 44.77 39.34 49.63 C 38.35 54.83 35.74 60.36 30.52 62.44 C 22.76 67.02 12.03 61.25 10.31 52.71 C 8.52 47.31 11.67 41.96 15.12 38.01 C 18.35 34.43 19.77 28.90 24.73 27.24 C 24.70 24.10 24.41 20.95 24.80 17.82 Z"
     transform="translate(52,60)"
     id="path18" />
</svg>
